{"accessors" : [{"bufferView" : 0, "byteOffset" : 0, "componentType" : 5123, "count" : 2808, "type" : "SCALAR", "max" : [2807], "min" : [0]}, {"bufferView" : 1, "byteOffset" : 0, "componentType" : 5126, "count" : 2808, "type" : "VEC3", "max" : [67368.0234375, 67372.0234375, 67376.0234375], "min" : [0.022047000005841255, 4.02204704284668, 8.02204704284668]}, {"bufferView" : 1, "byteOffset" : 12, "componentType" : 5126, "count" : 2808, "type" : "VEC3", "max" : [67380.0234375, 67384.0234375, 67388.0234375], "min" : [12.02204704284668, 16.02204704284668, 20.02204704284668]}], "asset" : {"generator" : "Aspose.3D 20.8", "version" : "2.0"}, "buffers" : [{"uri" : "buffer.bin", "byteLength" : 73016}], "bufferViews" : [{"buffer" : 0, "byteOffset" : 0, "byteLength" : 5616, "target" : 34963}, {"buffer" : 0, "byteOffset" : 5620, "byteLength" : 67392, "byteStride" : 24, "target" : 34962}], "materials" : [{"pbrMetallicRoughness" : {"baseColorFactor" : [0.5, 0.5, 0.5, 1], "metallicFactor" : 0, "roughnessFactor" : 0}, "emissiveFactor" : [0, 0, 0], "alphaMode" : "OPAQUE", "doubleSided" : false}], "meshes" : [{"primitives" : [{"attributes" : {"POSITION" : 1, "NORMAL" : 2}, "indices" : 0, "material" : 0, "mode" : 4}]}], "nodes" : [{"mesh" : 0, "name" : "rootNode"}], "scene" : 0, "scenes" : [{"nodes" : [0]}]}