{
    "asset" : {
        "generator" : "Khronos glTF Blender I/O v0.9.36",
        "version" : "2.0"
    },
    "scene" : 0,
    "scenes" : [
        {
            "name" : "Scene",
            "nodes" : [
                0
            ]
        }
    ],
    "nodes" : [
        {
            "mesh" : 0,
            "name" : "canguro",
            "rotation" : [
                0.005863931030035019,
                0,
                0,
                0.9999828338623047
            ]
        }
    ],
    "materials" : [
        {
            "doubleSided" : true,
            "name" : "canguro",
            "pbrMetallicRoughness" : {
                "baseColorFactor" : [
                    0.800000011920929,
                    0.800000011920929,
                    0.800000011920929,
                    1
                ],
                "metallicFactor" : 0,
                "roughnessFactor" : 0.5
            }
        }
    ],
    "meshes" : [
        {
            "name" : "canguro",
            "primitives" : [
                {
                    "attributes" : {
                        "POSITION" : 0,
                        "NORMAL" : 1,
                        "TEXCOORD_0" : 2
                    },
                    "indices" : 3,
                    "material" : 0
                }
            ]
        }
    ],
    "accessors" : [
        {
            "bufferView" : 0,
            "componentType" : 5126,
            "count" : 20579,
            "max" : [
                3.0775949954986572,
                3.486104965209961,
                8.534357070922852
            ],
            "min" : [
                -3.0775949954986572,
                -3.486104965209961,
                -8.534357070922852
            ],
            "type" : "VEC3"
        },
        {
            "bufferView" : 1,
            "componentType" : 5126,
            "count" : 20579,
            "type" : "VEC3"
        },
        {
            "bufferView" : 2,
            "componentType" : 5126,
            "count" : 20579,
            "type" : "VEC2"
        },
        {
            "bufferView" : 3,
            "componentType" : 5123,
            "count" : 105072,
            "type" : "SCALAR"
        }
    ],
    "bufferViews" : [
        {
            "buffer" : 0,
            "byteLength" : 246948,
            "byteOffset" : 0
        },
        {
            "buffer" : 0,
            "byteLength" : 246948,
            "byteOffset" : 246948
        },
        {
            "buffer" : 0,
            "byteLength" : 164632,
            "byteOffset" : 493896
        },
        {
            "buffer" : 0,
            "byteLength" : 210144,
            "byteOffset" : 658528
        }
    ],
    "buffers" : [
        {
            "byteLength" : 868672,
            "uri" : "data:application/octet-stream;base64,"
        }
    ]
}
