{"accessors" : [{"bufferView" : 0, "byteOffset" : 0, "componentType" : 5125, "count" : 110286, "type" : "SCALAR", "max" : [110285], "min" : [0]}, {"bufferView" : 1, "byteOffset" : 0, "componentType" : 5126, "count" : 110286, "type" : "VEC3", "max" : [3529120, 3529124, 3529128], "min" : [0.003527000080794096, 4.0035271644592285, 8.00352668762207]}, {"bufferView" : 1, "byteOffset" : 12, "componentType" : 5126, "count" : 110286, "type" : "VEC2", "max" : [3529132, 3529136], "min" : [12.00352668762207, 16.00352668762207]}, {"bufferView" : 1, "byteOffset" : 20, "componentType" : 5126, "count" : 110286, "type" : "VEC3", "max" : [3529140, 3529144, 3529148], "min" : [20.00352668762207, 24.00352668762207, 28.00352668762207]}], "asset" : {"generator" : "Aspose.3D 20.8", "version" : "2.0"}, "buffers" : [{"uri" : "buffer.bin", "byteLength" : 3970304}], "bufferViews" : [{"buffer" : 0, "byteOffset" : 0, "byteLength" : 441144, "target" : 34963}, {"buffer" : 0, "byteOffset" : 441148, "byteLength" : 3529152, "byteStride" : 32, "target" : 34962}], "meshes" : [{"primitives" : [{"attributes" : {"POSITION" : 1, "TEXCOORD_0" : 2, "NORMAL" : 3}, "indices" : 0, "mode" : 4}]}], "nodes" : [{"mesh" : 0, "name" : "Object_3_Mesh_0"}], "scene" : 0, "scenes" : [{"nodes" : [0]}]}